<svg id="visual" preserveAspectRatio="none" viewBox="0 0 1536 162" width="1536" height="162" xmlns="http://www.w3.org/2000/svg" xmlns:xlink="http://www.w3.org/1999/xlink" version="1.1"><path d="M0 0L32 2.7C64 5.3 128 10.7 192 13.3C256 16 320 16 384 16C448 16 512 16 576 16C640 16 704 16 768 17C832 18 896 20 960 20.2C1024 20.3 1088 18.7 1152 17.3C1216 16 1280 15 1344 14.8C1408 14.7 1472 15.3 1504 15.7L1536 16L1536 0L1504 0C1472 0 1408 0 1344 0C1280 0 1216 0 1152 0C1088 0 1024 0 960 0C896 0 832 0 768 0C704 0 640 0 576 0C512 0 448 0 384 0C320 0 256 0 192 0C128 0 64 0 32 0L0 0Z" fill="#041623"></path><path d="M0 24L32 27.2C64 30.3 128 36.7 192 38.5C256 40.3 320 37.7 384 37.2C448 36.7 512 38.3 576 35.2C640 32 704 24 768 21.5C832 19 896 22 960 23C1024 24 1088 23 1152 25.2C1216 27.3 1280 32.7 1344 36.7C1408 40.7 1472 43.3 1504 44.7L1536 46L1536 14L1504 13.7C1472 13.3 1408 12.7 1344 12.8C1280 13 1216 14 1152 15.3C1088 16.7 1024 18.3 960 18.2C896 18 832 16 768 15C704 14 640 14 576 14C512 14 448 14 384 14C320 14 256 14 192 11.7C128 9.3 64 4.7 32 2.3L0 0Z" fill="#3c4c5c"></path><path d="M0 32L32 33.8C64 35.7 128 39.3 192 41.2C256 43 320 43 384 44.2C448 45.3 512 47.7 576 44.7C640 41.7 704 33.3 768 29.8C832 26.3 896 27.7 960 30.5C1024 33.3 1088 37.7 1152 40C1216 42.3 1280 42.7 1344 43.7C1408 44.7 1472 46.3 1504 47.2L1536 48L1536 44L1504 42.7C1472 41.3 1408 38.7 1344 34.7C1280 30.7 1216 25.3 1152 23.2C1088 21 1024 22 960 21C896 20 832 17 768 19.5C704 22 640 30 576 33.2C512 36.3 448 34.7 384 35.2C320 35.7 256 38.3 192 36.5C128 34.7 64 28.3 32 25.2L0 22Z" fill="#798b9c"></path><path d="M0 53L32 52.7C64 52.3 128 51.7 192 53.8C256 56 320 61 384 64.8C448 68.7 512 71.3 576 64.8C640 58.3 704 42.7 768 38.8C832 35 896 43 960 47.8C1024 52.7 1088 54.3 1152 53.3C1216 52.3 1280 48.7 1344 48.3C1408 48 1472 51 1504 52.5L1536 54L1536 46L1504 45.2C1472 44.3 1408 42.7 1344 41.7C1280 40.7 1216 40.3 1152 38C1088 35.7 1024 31.3 960 28.5C896 25.7 832 24.3 768 27.8C704 31.3 640 39.7 576 42.7C512 45.7 448 43.3 384 42.2C320 41 256 41 192 39.2C128 37.3 64 33.7 32 31.8L0 30Z" fill="#bbcfe2"></path><path d="M0 135L32 122.7C64 110.3 128 85.7 192 75.5C256 65.3 320 69.7 384 77.5C448 85.3 512 96.7 576 105.5C640 114.3 704 120.7 768 112.8C832 105 896 83 960 75.5C1024 68 1088 75 1152 74.5C1216 74 1280 66 1344 66.8C1408 67.7 1472 77.3 1504 82.2L1536 87L1536 52L1504 50.5C1472 49 1408 46 1344 46.3C1280 46.7 1216 50.3 1152 51.3C1088 52.3 1024 50.7 960 45.8C896 41 832 33 768 36.8C704 40.7 640 56.3 576 62.8C512 69.3 448 66.7 384 62.8C320 59 256 54 192 51.8C128 49.7 64 50.3 32 50.7L0 51Z" fill="#c9ddf0"></path><path d="M0 140L32 127.3C64 114.7 128 89.3 192 80.5C256 71.7 320 79.3 384 87.2C448 95 512 103 576 111.7C640 120.3 704 129.7 768 122.7C832 115.7 896 92.3 960 83.8C1024 75.3 1088 81.7 1152 80.8C1216 80 1280 72 1344 72.3C1408 72.7 1472 81.3 1504 85.7L1536 90L1536 85L1504 80.2C1472 75.3 1408 65.7 1344 64.8C1280 64 1216 72 1152 72.5C1088 73 1024 66 960 73.5C896 81 832 103 768 110.8C704 118.7 640 112.3 576 103.5C512 94.7 448 83.3 384 75.5C320 67.7 256 63.3 192 73.5C128 83.7 64 108.3 32 120.7L0 133Z" fill="#bbcfe2"></path><path d="M0 142L32 138.5C64 135 128 128 192 128.5C256 129 320 137 384 139.7C448 142.3 512 139.7 576 138.7C640 137.7 704 138.3 768 137.8C832 137.3 896 135.7 960 133C1024 130.3 1088 126.7 1152 124C1216 121.3 1280 119.7 1344 116.7C1408 113.7 1472 109.3 1504 107.2L1536 105L1536 88L1504 83.7C1472 79.3 1408 70.7 1344 70.3C1280 70 1216 78 1152 78.8C1088 79.7 1024 73.3 960 81.8C896 90.3 832 113.7 768 120.7C704 127.7 640 118.3 576 109.7C512 101 448 93 384 85.2C320 77.3 256 69.7 192 78.5C128 87.3 64 112.7 32 125.3L0 138Z" fill="#798b9c"></path><path d="M0 145L32 145.8C64 146.7 128 148.3 192 151C256 153.7 320 157.3 384 158.5C448 159.7 512 158.3 576 156C640 153.7 704 150.3 768 150C832 149.7 896 152.3 960 151.2C1024 150 1088 145 1152 141C1216 137 1280 134 1344 132.5C1408 131 1472 131 1504 131L1536 131L1536 103L1504 105.2C1472 107.3 1408 111.7 1344 114.7C1280 117.7 1216 119.3 1152 122C1088 124.7 1024 128.3 960 131C896 133.7 832 135.3 768 135.8C704 136.3 640 135.7 576 136.7C512 137.7 448 140.3 384 137.7C320 135 256 127 192 126.5C128 126 64 133 32 136.5L0 140Z" fill="#3c4c5c"></path><path d="M0 163L32 163C64 163 128 163 192 163C256 163 320 163 384 163C448 163 512 163 576 163C640 163 704 163 768 163C832 163 896 163 960 163C1024 163 1088 163 1152 163C1216 163 1280 163 1344 163C1408 163 1472 163 1504 163L1536 163L1536 129L1504 129C1472 129 1408 129 1344 130.5C1280 132 1216 135 1152 139C1088 143 1024 148 960 149.2C896 150.3 832 147.7 768 148C704 148.3 640 151.7 576 154C512 156.3 448 157.7 384 156.5C320 155.3 256 151.7 192 149C128 146.3 64 144.7 32 143.8L0 143Z" fill="#041623"></path></svg>
