<svg id="visual" viewBox="0 0 2560 164" width="2560" height="164" xmlns="http://www.w3.org/2000/svg" xmlns:xlink="http://www.w3.org/1999/xlink" version="1.1"><path d="M0 8L53.3 8.2C106.7 8.3 213.3 8.7 320 11.7C426.7 14.7 533.3 20.3 640 20.2C746.7 20 853.3 14 960 9.7C1066.7 5.3 1173.3 2.7 1280 5.8C1386.7 9 1493.3 18 1600 21.5C1706.7 25 1813.3 23 1920 23.7C2026.7 24.3 2133.3 27.7 2240 24.7C2346.7 21.7 2453.3 12.3 2506.7 7.7L2560 3L2560 0L2506.7 0C2453.3 0 2346.7 0 2240 0C2133.3 0 2026.7 0 1920 0C1813.3 0 1706.7 0 1600 0C1493.3 0 1386.7 0 1280 0C1173.3 0 1066.7 0 960 0C853.3 0 746.7 0 640 0C533.3 0 426.7 0 320 0C213.3 0 106.7 0 53.3 0L0 0Z" fill="#1f2238"></path><path d="M0 14L53.3 13.7C106.7 13.3 213.3 12.7 320 14.7C426.7 16.7 533.3 21.3 640 22.2C746.7 23 853.3 20 960 18.8C1066.7 17.7 1173.3 18.3 1280 20.7C1386.7 23 1493.3 27 1600 29C1706.7 31 1813.3 31 1920 31.2C2026.7 31.3 2133.3 31.7 2240 28.3C2346.7 25 2453.3 18 2506.7 14.5L2560 11L2560 1L2506.7 5.7C2453.3 10.3 2346.7 19.7 2240 22.7C2133.3 25.7 2026.7 22.3 1920 21.7C1813.3 21 1706.7 23 1600 19.8C1493.3 16.7 1386.7 8.3 1280 5.2C1173.3 2 1066.7 4 960 8C853.3 12 746.7 18 640 18.2C533.3 18.3 426.7 12.7 320 9.7C213.3 6.7 106.7 6.3 53.3 6.2L0 6Z" fill="#444e68"></path><path d="M0 47L53.3 41.8C106.7 36.7 213.3 26.3 320 32.3C426.7 38.3 533.3 60.7 640 71C746.7 81.3 853.3 79.7 960 69.5C1066.7 59.3 1173.3 40.7 1280 37.3C1386.7 34 1493.3 46 1600 53.2C1706.7 60.3 1813.3 62.7 1920 71C2026.7 79.3 2133.3 93.7 2240 90.7C2346.7 87.7 2453.3 67.3 2506.7 57.2L2560 47L2560 9L2506.7 12.5C2453.3 16 2346.7 23 2240 26.3C2133.3 29.7 2026.7 29.3 1920 29.2C1813.3 29 1706.7 29 1600 27C1493.3 25 1386.7 21 1280 18.7C1173.3 16.3 1066.7 15.7 960 16.8C853.3 18 746.7 21 640 20.2C533.3 19.3 426.7 14.7 320 12.7C213.3 10.7 106.7 11.3 53.3 11.7L0 12Z" fill="#6c7e9c"></path><path d="M0 50L53.3 46.5C106.7 43 213.3 36 320 42C426.7 48 533.3 67 640 78.2C746.7 89.3 853.3 92.7 960 84.8C1066.7 77 1173.3 58 1280 55.3C1386.7 52.7 1493.3 66.3 1600 72C1706.7 77.7 1813.3 75.3 1920 80.2C2026.7 85 2133.3 97 2240 96C2346.7 95 2453.3 81 2506.7 74L2560 67L2560 45L2506.7 55.2C2453.3 65.3 2346.7 85.7 2240 88.7C2133.3 91.7 2026.7 77.3 1920 69C1813.3 60.7 1706.7 58.3 1600 51.2C1493.3 44 1386.7 32 1280 35.3C1173.3 38.7 1066.7 57.3 960 67.5C853.3 77.7 746.7 79.3 640 69C533.3 58.7 426.7 36.3 320 30.3C213.3 24.3 106.7 34.7 53.3 39.8L0 45Z" fill="#97b2d2"></path><path d="M0 72L53.3 76.3C106.7 80.7 213.3 89.3 320 93.8C426.7 98.3 533.3 98.7 640 102.7C746.7 106.7 853.3 114.3 960 115.2C1066.7 116 1173.3 110 1280 106.2C1386.7 102.3 1493.3 100.7 1600 99C1706.7 97.3 1813.3 95.7 1920 105.5C2026.7 115.3 2133.3 136.7 2240 135.3C2346.7 134 2453.3 110 2506.7 98L2560 86L2560 65L2506.7 72C2453.3 79 2346.7 93 2240 94C2133.3 95 2026.7 83 1920 78.2C1813.3 73.3 1706.7 75.7 1600 70C1493.3 64.3 1386.7 50.7 1280 53.3C1173.3 56 1066.7 75 960 82.8C853.3 90.7 746.7 87.3 640 76.2C533.3 65 426.7 46 320 40C213.3 34 106.7 41 53.3 44.5L0 48Z" fill="#b2d3f3"></path><path d="M0 99L53.3 103.2C106.7 107.3 213.3 115.7 320 118C426.7 120.3 533.3 116.7 640 117.2C746.7 117.7 853.3 122.3 960 126.3C1066.7 130.3 1173.3 133.7 1280 129.3C1386.7 125 1493.3 113 1600 106.5C1706.7 100 1813.3 99 1920 109.2C2026.7 119.3 2133.3 140.7 2240 141.2C2346.7 141.7 2453.3 121.3 2506.7 111.2L2560 101L2560 84L2506.7 96C2453.3 108 2346.7 132 2240 133.3C2133.3 134.7 2026.7 113.3 1920 103.5C1813.3 93.7 1706.7 95.3 1600 97C1493.3 98.7 1386.7 100.3 1280 104.2C1173.3 108 1066.7 114 960 113.2C853.3 112.3 746.7 104.7 640 100.7C533.3 96.7 426.7 96.3 320 91.8C213.3 87.3 106.7 78.7 53.3 74.3L0 70Z" fill="#b2d3f3"></path><path d="M0 113L53.3 116.2C106.7 119.3 213.3 125.7 320 126.2C426.7 126.7 533.3 121.3 640 122.2C746.7 123 853.3 130 960 136.3C1066.7 142.7 1173.3 148.3 1280 142.8C1386.7 137.3 1493.3 120.7 1600 114C1706.7 107.3 1813.3 110.7 1920 120.3C2026.7 130 2133.3 146 2240 144.3C2346.7 142.7 2453.3 123.3 2506.7 113.7L2560 104L2560 99L2506.7 109.2C2453.3 119.3 2346.7 139.7 2240 139.2C2133.3 138.7 2026.7 117.3 1920 107.2C1813.3 97 1706.7 98 1600 104.5C1493.3 111 1386.7 123 1280 127.3C1173.3 131.7 1066.7 128.3 960 124.3C853.3 120.3 746.7 115.7 640 115.2C533.3 114.7 426.7 118.3 320 116C213.3 113.7 106.7 105.3 53.3 101.2L0 97Z" fill="#97b2d2"></path><path d="M0 126L53.3 128.2C106.7 130.3 213.3 134.7 320 135.5C426.7 136.3 533.3 133.7 640 133.3C746.7 133 853.3 135 960 138.8C1066.7 142.7 1173.3 148.3 1280 143.7C1386.7 139 1493.3 124 1600 119.5C1706.7 115 1813.3 121 1920 129.8C2026.7 138.7 2133.3 150.3 2240 148.5C2346.7 146.7 2453.3 131.3 2506.7 123.7L2560 116L2560 102L2506.7 111.7C2453.3 121.3 2346.7 140.7 2240 142.3C2133.3 144 2026.7 128 1920 118.3C1813.3 108.7 1706.7 105.3 1600 112C1493.3 118.7 1386.7 135.3 1280 140.8C1173.3 146.3 1066.7 140.7 960 134.3C853.3 128 746.7 121 640 120.2C533.3 119.3 426.7 124.7 320 124.2C213.3 123.7 106.7 117.3 53.3 114.2L0 111Z" fill="#6c7e9c"></path><path d="M0 140L53.3 141.7C106.7 143.3 213.3 146.7 320 147.8C426.7 149 533.3 148 640 147C746.7 146 853.3 145 960 146.7C1066.7 148.3 1173.3 152.7 1280 149.7C1386.7 146.7 1493.3 136.3 1600 133C1706.7 129.7 1813.3 133.3 1920 139.3C2026.7 145.3 2133.3 153.7 2240 153.2C2346.7 152.7 2453.3 143.3 2506.7 138.7L2560 134L2560 114L2506.7 121.7C2453.3 129.3 2346.7 144.7 2240 146.5C2133.3 148.3 2026.7 136.7 1920 127.8C1813.3 119 1706.7 113 1600 117.5C1493.3 122 1386.7 137 1280 141.7C1173.3 146.3 1066.7 140.7 960 136.8C853.3 133 746.7 131 640 131.3C533.3 131.7 426.7 134.3 320 133.5C213.3 132.7 106.7 128.3 53.3 126.2L0 124Z" fill="#444e68"></path><path d="M0 165L53.3 165C106.7 165 213.3 165 320 165C426.7 165 533.3 165 640 165C746.7 165 853.3 165 960 165C1066.7 165 1173.3 165 1280 165C1386.7 165 1493.3 165 1600 165C1706.7 165 1813.3 165 1920 165C2026.7 165 2133.3 165 2240 165C2346.7 165 2453.3 165 2506.7 165L2560 165L2560 132L2506.7 136.7C2453.3 141.3 2346.7 150.7 2240 151.2C2133.3 151.7 2026.7 143.3 1920 137.3C1813.3 131.3 1706.7 127.7 1600 131C1493.3 134.3 1386.7 144.7 1280 147.7C1173.3 150.7 1066.7 146.3 960 144.7C853.3 143 746.7 144 640 145C533.3 146 426.7 147 320 145.8C213.3 144.7 106.7 141.3 53.3 139.7L0 138Z" fill="#1f2238"></path></svg>